<?xml version="1.0" encoding="utf-8"?>
<!-- Generator: Adobe Illustrator 14.0.0, SVG Export Plug-In . SVG Version: 6.00 Build 43363)  -->
<!DOCTYPE svg PUBLIC "-//W3C//DTD SVG 1.1//EN" "http://www.w3.org/Graphics/SVG/1.1/DTD/svg11.dtd">
<svg version="1.1" id="Layer_1" xmlns="http://www.w3.org/2000/svg" xmlns:xlink="http://www.w3.org/1999/xlink" x="0px" y="0px"
	 width="800px" height="600px" viewBox="0 0 800 600" enable-background="new 0 0 800 600" xml:space="preserve">
<g>
	<path fill-rule="evenodd" clip-rule="evenodd" fill="none" stroke="#000000" stroke-width="0.9999" stroke-linecap="round" d="
		M570.979,290.982c2.23,1.568,3.19,20.867,1,8.999C571.608,297.97,570.429,294.761,570.979,290.982z"/>
	<path fill-rule="evenodd" clip-rule="evenodd" fill="none" stroke="#000000" stroke-width="0.9999" stroke-linecap="round" d="
		M575.979,296.981c2.143-0.11,0.472,12.169,1,16.998C574.836,314.09,576.508,301.811,575.979,296.981z"/>
	<path fill-rule="evenodd" clip-rule="evenodd" fill="none" stroke="#000000" stroke-width="0.9999" stroke-linecap="round" d="
		M578.979,301.981c1.774-2.668,0.729,5.858,1,7.999C578.205,312.647,579.25,304.122,578.979,301.981z"/>
	<path fill-rule="evenodd" clip-rule="evenodd" fill="none" stroke="#000000" stroke-width="0.9999" stroke-linecap="round" d="
		M571.979,310.979c1.854-2.429,0.675,6.591,1,8.999C571.127,322.408,572.305,313.388,571.979,310.979z"/>
	<path fill-rule="evenodd" clip-rule="evenodd" fill="none" stroke="#000000" stroke-width="0.9999" stroke-linecap="round" d="
		M469.993,312.979c1.853-2.43,0.674,6.591,0.999,8.999C467.383,321.339,471.265,317.184,469.993,312.979z"/>
	<path fill-rule="evenodd" clip-rule="evenodd" fill="none" stroke="#000000" stroke-width="0.9999" stroke-linecap="round" d="
		M476.992,322.979C472.813,318.841,478.766,309.088,476.992,322.979L476.992,322.979z"/>
	<path fill-rule="evenodd" clip-rule="evenodd" fill="none" stroke="#000000" stroke-width="0.9999" stroke-linecap="round" d="
		M472.992,321.979c2.187,0.147,2.147,2.52,2,4.999c-0.343,1.655-3.363-7.564-3,1c-1.377,3.183-0.989-3.533-1-4.999
		C472.155,323.141,472.771,322.758,472.992,321.979z"/>
	<path fill-rule="evenodd" clip-rule="evenodd" fill="none" stroke="#000000" stroke-width="1.2344" stroke-linecap="round" d="
		M464.993,315.979c-3.886-26.269,11.453-51.577,14.296-80.692c2.344-24,1.512-53.172,0.202-78.788"/>
	<path fill-rule="evenodd" clip-rule="evenodd" fill="none" stroke="#000000" stroke-width="1.2957" stroke-linecap="round" d="
		M477.492,274.484c4.744-6.313,11.762-10.756,18.055-15.249c0.399-1.918-0.363-4.45,0.942-6.248"/>
	<path fill-rule="evenodd" clip-rule="evenodd" fill="none" stroke="#000000" stroke-width="1.2229" stroke-linecap="round" d="
		M496.489,252.987c0.671-32.16,0.762-64.653,3-96.488"/>
	<path fill-rule="evenodd" clip-rule="evenodd" fill="none" stroke="#000000" stroke-width="1.2207" stroke-linecap="round" d="
		M496.489,252.987c19.036-27.073,14.046-63.888,13.998-96.488"/>
	<path fill-rule="evenodd" clip-rule="evenodd" fill="none" stroke="#000000" stroke-width="1.1649" stroke-linecap="round" d="
		M576.979,288.983c0.116-0.217,0.233-0.434,0.35-0.65c-0.095-22.644-18.992-32.708-24.643-52.047
		c-6.95-23.788-3.116-53.402-8.203-79.786"/>
	<path fill-rule="evenodd" clip-rule="evenodd" fill="none" stroke="#000000" stroke-width="1.1488" stroke-linecap="round" d="
		M480.491,277.484c7.221-10.296,18.99-15.999,28.996-22.997"/>
	<path fill-rule="evenodd" clip-rule="evenodd" fill="none" stroke="#000000" stroke-width="1.1814" stroke-linecap="round" d="
		M507.488,262.486c-9.843,5.433-17.453,14.667-26.101,20.611c3.948-10.764,17.146-17.915,27.101-24.611"/>
	<path fill-rule="evenodd" clip-rule="evenodd" fill="none" stroke="#000000" stroke-width="1.1805" stroke-linecap="round" d="
		M483.491,289.482c7.085-8.327,16.643-14.225,25.996-19.997"/>
	<path fill-rule="evenodd" clip-rule="evenodd" fill="none" stroke="#000000" stroke-width="1.2181" stroke-linecap="round" d="
		M495.489,285.483c16.659,14.612,40.392,2.118,59.434,4.761c0.396,0.762,1.449,1.041,2.283,1.516
		c0.318,0.347,0.682,0.65,1.047,0.951c0.875,10.401,0.806,20.883,5.534,30.461c0.449,0.218,0.823,0.511,1.193,0.807"/>
	<path fill-rule="evenodd" clip-rule="evenodd" fill="none" stroke="#000000" stroke-width="1.2063" stroke-linecap="round" d="
		M486.49,313.479c2.433-7.507,6.777-14.748,7-22.997"/>
	<path fill-rule="evenodd" clip-rule="evenodd" fill="none" stroke="#000000" stroke-width="0.9999" stroke-linecap="round" d="
		M566.98,298.981c1.19-3.017,1.079,7.046,3,1c3.065,0.981-1.149,2.668-1,3.999c0.842,5.157,1.305,10.693,1,16.998
		c-2.289-1.711-0.367-7.632-1-10.998C566.789,306.27,568.342,304.185,566.98,298.981z"/>
	<path fill-rule="evenodd" clip-rule="evenodd" fill="none" stroke="#000000" stroke-width="0.9999" stroke-linecap="round" d="
		M523.986,313.979c-2.37,1.317-11.771,4.211-11.999,10.999c-2.041-1.293-1.818-4.848-5.999-4c-2.811-1.743,5.42-1.106,4.999,1
		C514.687,318.679,516.802,313.795,523.986,313.979z"/>
	<path fill-rule="evenodd" clip-rule="evenodd" fill="none" stroke="#000000" stroke-width="1.074" stroke-linecap="round" d="
		M533.484,317.479c8.247,2.904,16.883,5.745,23.997,10.998"/>
	<path fill-rule="evenodd" clip-rule="evenodd" fill="none" stroke="#000000" stroke-width="0.9999" stroke-linecap="round" d="
		M576.979,323.979c2.736,3.454-0.783,9.178-1,12.998C573.407,340.351,577.799,328.456,576.979,323.979z"/>
	<path fill-rule="evenodd" clip-rule="evenodd" fill="none" stroke="#000000" stroke-width="0.9999" stroke-linecap="round" d="
		M509.987,326.978c2.857,0.901-3.957,8.434-6.999,9.999c-0.265,3.836-2.292,12.235-1.999,3
		C502.471,334.126,509.113,333.436,509.987,326.978z"/>
	<path fill-rule="evenodd" clip-rule="evenodd" fill="none" stroke="#000000" stroke-width="0.9999" stroke-linecap="round" d="
		M566.98,328.978c2.278-1.771-1.008,4.193,1,5.999c-2.688-0.688-1.933,2.067-3,3C563.304,336.556,567.001,332.055,566.98,328.978z"
		/>
	<path fill-rule="evenodd" clip-rule="evenodd" fill="none" stroke="#000000" stroke-width="0.9999" stroke-linecap="round" d="
		M475.992,333.977c1.388-3.192,0.611,3.911,2,4c2.957-1.752-0.578-5.327,0-7.999c0.972,0.027,0.775,1.224,0.999,2
		c1.172-0.162,0.844-1.823,1-3c1.486,0.847,1.447,3.219,2,4.999c-4.606-1.878,0.323,7.701,1,9.999c-1.344,2.55-1.906-3.999-3-4.999
		c-2.13,0.325,0.161,4.361,1,4.999C478.698,345.224,476.689,337.646,475.992,333.977z"/>
	<path fill-rule="evenodd" clip-rule="evenodd" fill="none" stroke="#000000" stroke-width="0.9999" stroke-linecap="round" d="
		M572.979,329.978c2.884,2.95-1.404,7.212,0,11.998c2.62-3.699,1.91,0.229,1,3c-1.352-1.276-1.998-3.04-3,0
		C569.746,342.038,573.59,335.614,572.979,329.978z"/>
</g>
</svg>
